<svg xmlns="http://www.w3.org/2000/svg" width="240" height="45.97" viewBox="0 0 240 45.97">
	<path d="M19.26,12.66a12.68,12.68,0,0,0-6.35-1.54,13.3,13.3,0,0,0-6.6,1.64,12.08,12.08,0,0,0-4.62,4.49A12.38,12.38,0,0,0,0,23.68a12.44,12.44,0,0,0,1.74,6.56A12.11,12.11,0,0,0,6.5,34.73a14.65,14.65,0,0,0,7,1.61,15.1,15.1,0,0,0,5.61-1,10.81,10.81,0,0,0,4.31-3.16L19.16,28a6.93,6.93,0,0,1-2.53,1.86,7.83,7.83,0,0,1-3.17.62,6.66,6.66,0,0,1-3.36-.81,5.54,5.54,0,0,1-2.18-2.36,6.81,6.81,0,0,1-.39-1l17.24-.09a9.41,9.41,0,0,0,.33-1.61,13.58,13.58,0,0,0,.07-1.41,12.22,12.22,0,0,0-1.59-6.26A11.43,11.43,0,0,0,19.26,12.66ZM7.52,21a6.73,6.73,0,0,1,.35-.92A5.44,5.44,0,0,1,13,16.93a5.13,5.13,0,0,1,2.8.74,4.71,4.71,0,0,1,1.77,2.11A7.9,7.9,0,0,1,18,21Zm28.82-3.5a3.72,3.72,0,0,1,1.94-.4A7.32,7.32,0,0,1,41,17.7a6.6,6.6,0,0,1,2.56,1.91l4.32-4.42A9.77,9.77,0,0,0,43.69,12,14.93,14.93,0,0,0,38,11a12.35,12.35,0,0,0-5.21,1,8.06,8.06,0,0,0-3.38,2.7,6.94,6.94,0,0,0-1.19,4,6.9,6.9,0,0,0,.84,3.62,6.37,6.37,0,0,0,2.19,2.19,13.28,13.28,0,0,0,2.83,1.26c1,.32,1.94.6,2.85.85a11.72,11.72,0,0,1,2.21.79A1.38,1.38,0,0,1,40,28.75a1.25,1.25,0,0,1-.72,1.14,4.15,4.15,0,0,1-2,.4,8.7,8.7,0,0,1-3.6-.72,9,9,0,0,1-2.86-2l-4.37,4.36a13.8,13.8,0,0,0,3,2.36,15.68,15.68,0,0,0,3.82,1.59,16,16,0,0,0,4.22.57,11.2,11.2,0,0,0,7.18-2.11,6.81,6.81,0,0,0,2.65-5.63,7.16,7.16,0,0,0-.84-3.7,6.84,6.84,0,0,0-2.18-2.29,12.41,12.41,0,0,0-2.83-1.34c-1-.31-1.93-.58-2.81-.82a10.62,10.62,0,0,1-2.18-.79,1.35,1.35,0,0,1-.87-1.19A1.17,1.17,0,0,1,36.34,17.53Zm35.18-4.72a11.27,11.27,0,0,0-6-1.64,10,10,0,0,0-4.47,1,9.84,9.84,0,0,0-1.89,1.21v-1.7H51.49V46H59V34.14A9.07,9.07,0,0,0,61,35.35a10.6,10.6,0,0,0,4.52.94,11.2,11.2,0,0,0,6.05-1.66,11.72,11.72,0,0,0,4.2-4.47,13.31,13.31,0,0,0,1.51-6.43,13.23,13.23,0,0,0-1.54-6.45A11.64,11.64,0,0,0,71.52,12.81ZM68.79,26.66a5.28,5.28,0,0,1-1.94,2,5.38,5.38,0,0,1-2.8.72,5.31,5.31,0,0,1-2.76-.72,5.07,5.07,0,0,1-1.91-2,6.48,6.48,0,0,1,0-5.86,5.07,5.07,0,0,1,1.91-2,5.42,5.42,0,0,1,2.81-.72,5.28,5.28,0,0,1,2.78.72,5.36,5.36,0,0,1,1.91,2,6.32,6.32,0,0,1,0,5.86Zm30-14a12.68,12.68,0,0,0-6.35-1.54,13.36,13.36,0,0,0-6.61,1.64,12.22,12.22,0,0,0-4.62,4.49,12.46,12.46,0,0,0-1.68,6.43,12.53,12.53,0,0,0,1.73,6.56A12.13,12.13,0,0,0,86,34.73a14.63,14.63,0,0,0,7,1.61,15.1,15.1,0,0,0,5.61-1,10.77,10.77,0,0,0,4.32-3.16L98.65,28a7,7,0,0,1-2.53,1.86,7.85,7.85,0,0,1-3.18.62,6.62,6.62,0,0,1-3.35-.81,5.54,5.54,0,0,1-2.18-2.36,6.85,6.85,0,0,1-.4-1l17.25-.09a9.32,9.32,0,0,0,.32-1.61,13.63,13.63,0,0,0,.08-1.41,12.22,12.22,0,0,0-1.59-6.26A11.43,11.43,0,0,0,98.75,12.66ZM87,21a6.76,6.76,0,0,1,.36-.92,5.41,5.41,0,0,1,5.13-3.18,5.16,5.16,0,0,1,2.81.74,4.63,4.63,0,0,1,1.76,2.11A6.91,6.91,0,0,1,97.44,21Zm35.66,7.87a6.78,6.78,0,0,1-2.66.49,5.7,5.7,0,0,1-2.83-.72,5.11,5.11,0,0,1-2-2,6,6,0,0,1-.72-3,5.75,5.75,0,0,1,.72-2.9,5.14,5.14,0,0,1,2-2,5.64,5.64,0,0,1,2.85-.72,6.84,6.84,0,0,1,2.56.45,5.3,5.3,0,0,1,2,1.39l4.91-5a12.34,12.34,0,0,0-4.19-2.85,13.59,13.59,0,0,0-5.24-1,14.07,14.07,0,0,0-6.8,1.64,12.65,12.65,0,0,0-4.79,17.43,12,12,0,0,0,4.74,4.51,14,14,0,0,0,6.8,1.64,13.49,13.49,0,0,0,5.34-1,13.34,13.34,0,0,0,4.29-3l-4.91-4.86A5.85,5.85,0,0,1,122.66,28.9ZM136.73,0a4,4,0,0,0-2.93,1.19,4.07,4.07,0,0,0-1.19,3,4.17,4.17,0,0,0,1.19,3,3.9,3.9,0,0,0,2.93,1.24,3.79,3.79,0,0,0,3-1.24,4.32,4.32,0,0,0,1.11-3,4.22,4.22,0,0,0-1.11-3A3.89,3.89,0,0,0,136.73,0Zm-3.82,35.8h7.64V11.67h-7.64Zm46.77-23.46a10.27,10.27,0,0,0-4.92-1.17,10.94,10.94,0,0,0-5.11,1.19A9,9,0,0,0,167,14.45a8.59,8.59,0,0,0-2.5-2.14A9,9,0,0,0,160,11.17a10.11,10.11,0,0,0-4.84,1.12,8.4,8.4,0,0,0-1.72,1.2V11.67h-7.64V35.8h7.64V21.7a3.86,3.86,0,0,1,.52-2,3.59,3.59,0,0,1,1.42-1.31,4.2,4.2,0,0,1,2-.48,3.92,3.92,0,0,1,2.76,1,3.62,3.62,0,0,1,1.12,2.81V35.8H169V21.7a4,4,0,0,1,.5-2,3.37,3.37,0,0,1,1.41-1.31,4.33,4.33,0,0,1,2-.48,3.86,3.86,0,0,1,2.7,1,3.59,3.59,0,0,1,1.12,2.81V35.8h7.64v-15a10.06,10.06,0,0,0-1.24-5.16A8.55,8.55,0,0,0,179.68,12.34Zm27.2.32a12.68,12.68,0,0,0-6.35-1.54,13.3,13.3,0,0,0-6.6,1.64,12.08,12.08,0,0,0-4.62,4.49,12.38,12.38,0,0,0-1.69,6.43,12.44,12.44,0,0,0,1.74,6.56,12.17,12.17,0,0,0,4.76,4.49,14.65,14.65,0,0,0,7,1.61,15.1,15.1,0,0,0,5.61-1A10.81,10.81,0,0,0,211,32.17L206.79,28a7,7,0,0,1-2.54,1.86,7.83,7.83,0,0,1-3.17.62,6.66,6.66,0,0,1-3.36-.81,5.54,5.54,0,0,1-2.18-2.36,6.81,6.81,0,0,1-.39-1l17.24-.09a9.41,9.41,0,0,0,.33-1.61,13.58,13.58,0,0,0,.07-1.41,12.22,12.22,0,0,0-1.59-6.26A11.43,11.43,0,0,0,206.88,12.66ZM195.14,21a6.73,6.73,0,0,1,.35-.92,5.44,5.44,0,0,1,5.14-3.18,5.13,5.13,0,0,1,2.8.74,4.71,4.71,0,0,1,1.77,2.11,7.9,7.9,0,0,1,.37,1.19Zm43.67-5.27a9,9,0,0,0-8-4.59,10.53,10.53,0,0,0-5,1.17A8.65,8.65,0,0,0,224,13.61V11.67h-7.64V35.8H224V22a4.23,4.23,0,0,1,.55-2.18,3.83,3.83,0,0,1,1.49-1.47,4.42,4.42,0,0,1,2.13-.52,4.08,4.08,0,0,1,3,1.17,4,4,0,0,1,1.19,3V35.8H240V20.36A9.25,9.25,0,0,0,238.81,15.76Z"/>
</svg>